<svg width="148" height="32" viewBox="0 0 148 32" fill="none" xmlns="http://www.w3.org/2000/svg">
<g clip-path="url(#clip0)">
<path d="M34.4289 16.1268C34.4289 18.5272 33.4857 20.4629 31.6062 21.9412C30.128 23.1097 28.5019 23.6939 26.7281 23.6939C24.6234 23.6939 22.8002 22.9337 21.2657 21.4203C19.7311 19.9068 18.9639 18.1189 18.9639 16.0564C18.9639 13.9024 19.7311 12.0723 21.2657 10.5588C22.8002 9.04543 24.6585 8.29224 26.8336 8.29224C28.9172 8.29224 30.7052 9.0595 32.1975 10.594C33.6827 12.1356 34.4289 13.9799 34.4289 16.1268ZM29.3537 16.162C29.3537 13.3815 29.1636 11.4739 28.7835 10.4462C28.3611 9.30588 27.6783 8.72866 26.7421 8.72866C25.8763 8.72866 25.1935 9.32699 24.7008 10.5307C24.208 11.7273 23.9687 13.3815 23.9687 15.4933C23.9687 18.4286 24.2573 20.5122 24.8345 21.7511C25.2991 22.7366 25.9608 23.2293 26.8055 23.2293C27.8543 23.2293 28.5442 22.6028 28.875 21.3499C29.1988 20.1532 29.3537 18.4286 29.3537 16.162Z" fill="white" fill-opacity="0.9"/>
<path d="M52.5897 15.712C52.5897 17.9926 51.9421 19.8932 50.6469 21.4137C49.3517 22.9341 47.7327 23.6944 45.7899 23.6944C44.3117 23.6944 43.1291 23.1101 42.2351 21.9416V29.4805C42.2351 30.107 42.2703 30.5012 42.3337 30.6702C42.397 30.8391 42.5519 30.9447 42.7842 30.9869C43.0165 31.0292 43.6077 31.0644 44.558 31.0855C44.8044 31.0855 44.9241 31.1911 44.9241 31.4093C44.9241 31.5782 44.7762 31.6627 44.4876 31.6627C44.4665 31.6627 44.3539 31.6627 44.1498 31.6627C43.9456 31.6627 43.7556 31.6627 43.5796 31.6627H40.1867C39.9403 31.6627 39.6025 31.6627 39.1801 31.6627C38.7507 31.6627 38.258 31.6627 37.7019 31.6627H36.0195C35.5268 31.6627 35.2804 31.5712 35.2804 31.3952C35.2804 31.2403 35.6817 31.1629 36.4912 31.1629C37.1599 31.1629 37.54 31.0925 37.6174 30.9588C37.6949 30.825 37.7371 30.3956 37.7371 29.6776V12.7344C37.7371 12.5795 37.7371 12.4247 37.7371 12.2628C37.7371 12.129 37.7371 12.0375 37.7371 11.9953V11.052C37.7582 10.5804 37.5822 10.2918 37.2021 10.1792C37.0191 10.1088 36.639 10.0806 36.0618 10.0806H35.4071C35.2241 10.0806 35.1396 10.0102 35.1396 9.8765C35.1396 9.69348 35.2734 9.63012 35.5409 9.67236C37.9201 9.60197 40.0037 9.1585 41.7987 8.32788C41.8902 8.46162 41.9465 8.64464 41.9676 8.8699L42.038 9.70756L42.0732 10.2777C42.6786 9.53158 43.2699 9.01772 43.8541 8.74319C44.4384 8.46866 45.1915 8.32788 46.1066 8.32788C47.965 8.32788 49.5136 9.02476 50.7454 10.4255C51.9702 11.8263 52.5897 13.5861 52.5897 15.712ZM47.6482 15.5782C47.6482 11.3054 46.6909 9.17258 44.7762 9.17258C43.9315 9.17258 43.2135 9.57381 42.6363 10.3833C42.3689 10.7634 42.2351 11.404 42.2351 12.298V18.9077C42.2351 20.3367 42.4111 21.3081 42.7701 21.829C43.2839 22.5892 43.9738 22.9693 44.8396 22.9693C46.712 22.9552 47.6482 20.4986 47.6482 15.5782Z" fill="white" fill-opacity="0.9"/>
<path d="M88.792 10.8129C88.792 11.4605 88.602 11.9955 88.2218 12.4108C87.8417 12.8261 87.349 13.0302 86.7436 13.0302C85.5329 13.0302 84.9275 12.4671 84.9275 11.3479C84.9275 10.9678 85.0753 10.5877 85.3639 10.2075C85.4343 10.116 85.4625 10.0386 85.4625 9.97525C85.4625 9.77111 85.3217 9.67256 85.0331 9.67256C84.2799 9.67256 83.7027 10.2639 83.3085 11.4535C83.0903 12.1222 82.9777 13.7693 82.9777 16.3809V18.8305V21.7799C82.9777 22.3853 83.2803 22.7091 83.8857 22.7513C84.2447 22.7724 84.6671 22.7865 85.1668 22.7865C85.4132 22.8076 85.5329 22.885 85.5329 23.0188C85.5329 23.2018 85.4343 23.2863 85.2302 23.2863H84.5544C84.3503 23.2863 83.3789 23.2863 81.6261 23.2863C81.7177 23.2863 81.2108 23.2863 80.1127 23.2863H78.4656H77.1844C76.9592 23.2863 76.6987 23.2863 76.4101 23.2863C76.1638 23.2863 76.0371 23.2159 76.0371 23.0681C76.0371 22.9202 76.1919 22.8499 76.5087 22.8499C77.4308 22.8287 77.9799 22.7302 78.1699 22.5612C78.36 22.3923 78.4585 21.8925 78.4585 21.0689L78.4233 12.0096C78.4233 11.2493 78.3177 10.7214 78.1066 10.4328C77.8954 10.1442 77.4167 9.96117 76.6776 9.89782C76.0934 9.85558 75.7625 9.82742 75.6851 9.80631C75.6077 9.78519 75.5654 9.7148 75.5654 9.58809C75.5654 9.46139 75.6569 9.39804 75.8329 9.39804C76.0371 9.39804 76.2271 9.39804 76.4031 9.39804H77.0718C78.7964 9.39804 80.6618 9.03904 82.6539 8.32104C82.7665 8.77155 82.8228 9.28541 82.8228 9.86966V11.2845C83.2522 10.2005 83.7168 9.43323 84.2166 8.98976C84.7234 8.5463 85.378 8.32104 86.1875 8.32104C86.9478 8.32104 87.5742 8.55334 88.0529 9.02496C88.5456 9.50362 88.792 10.102 88.792 10.8129Z" fill="white" fill-opacity="0.9"/>
<path d="M103.483 19.1541C103.483 19.6468 103.194 20.2945 102.61 21.104C101.357 22.8285 99.717 23.6944 97.6968 23.6944C95.4302 23.6944 93.5719 22.9764 92.1148 21.5404C90.6576 20.1044 89.9326 18.2672 89.9326 16.0287C89.9326 13.8325 90.6365 12.0023 92.0514 10.5311C93.4663 9.05995 95.2261 8.32788 97.3308 8.32788C98.7668 8.32788 99.9845 8.64464 100.998 9.27113C102.117 9.96801 102.849 10.9676 103.18 12.2628C103.272 12.664 103.335 13.1497 103.384 13.7058C102.871 13.7621 100.794 13.8114 97.1618 13.8395C96.5987 13.8395 95.8948 13.8607 95.043 13.9099C94.9727 14.7124 94.9445 15.3952 94.9445 15.9513C94.9445 18.5628 95.4935 20.4212 96.5917 21.5122C97.2393 22.1598 98.0347 22.4836 98.9779 22.4836C99.7593 22.4836 100.519 22.2161 101.252 21.6741C101.977 21.1392 102.533 20.4423 102.913 19.5905C103.089 19.1611 103.237 18.95 103.349 18.95C103.441 18.957 103.483 19.0204 103.483 19.1541ZM99.2454 13.2694C99.2665 11.5518 99.1469 10.3622 98.8794 9.69348C98.6119 9.02476 98.1403 8.69392 97.4645 8.69392C96.0989 8.69392 95.3105 10.2214 95.1134 13.2694C95.5851 13.2694 96.5705 13.2694 98.0699 13.2694C98.5204 13.2694 98.9146 13.2694 99.2454 13.2694Z" fill="white" fill-opacity="0.9"/>
<path d="M119.124 8.93346C119.124 9.08833 119.082 9.18687 118.99 9.22207C118.899 9.25727 118.589 9.27134 118.047 9.27134C117.442 9.27134 117.083 9.30654 116.97 9.36989L116.766 9.73593L116.365 10.9115C116.182 11.4464 115.78 12.5375 115.154 14.1706C115.112 14.3043 114.619 15.684 113.676 18.3096C111.458 24.5182 110.022 28.2771 109.375 29.5723C108.565 31.1842 107.538 31.9937 106.278 31.9937C105.56 31.9937 104.982 31.7826 104.546 31.3532C104.11 30.9238 103.891 30.3677 103.891 29.6708C103.891 28.5727 104.497 28.0237 105.707 28.0237C106.109 28.0237 106.432 28.1574 106.686 28.4249C106.798 28.5375 106.989 28.8472 107.256 29.3681C107.411 29.5934 107.629 29.706 107.897 29.706C108.347 29.706 108.776 29.3329 109.192 28.5797C109.607 27.8266 110.17 26.4117 110.888 24.3281C110.712 23.9691 110.36 23.1737 109.846 21.9418C109.171 20.2383 108.277 18.0069 107.15 15.2476C106.883 14.5789 106.278 13.1077 105.341 10.8411C105.025 10.0457 104.757 9.57403 104.532 9.42621C104.307 9.27838 103.793 9.18687 102.983 9.16576C102.716 9.16576 102.582 9.08833 102.582 8.93346C102.582 8.7786 102.716 8.70117 102.983 8.70117H103.589C103.927 8.70117 104.426 8.70117 105.102 8.70117C105.771 8.70117 106.292 8.70117 106.651 8.70117H110.755C110.888 8.70117 111.043 8.70117 111.226 8.70117C111.473 8.70117 111.592 8.7786 111.592 8.93346C111.592 9.1376 111.254 9.22207 110.586 9.20095C109.91 9.17983 109.579 9.32766 109.579 9.63738C109.579 9.86263 109.67 10.2076 109.846 10.6792C110.093 11.3057 110.227 11.6787 110.248 11.7914C111.346 14.8393 112.24 17.1622 112.937 18.7531C115.02 13.4385 116.062 10.4117 116.062 9.67258C116.062 9.4262 115.802 9.30654 115.288 9.30654C114.211 9.30654 113.676 9.20799 113.676 9.00386C113.676 8.79972 113.81 8.70117 114.077 8.70117C114.302 8.70117 114.528 8.71525 114.753 8.73637C115.175 8.7786 115.759 8.80676 116.498 8.80676C116.59 8.80676 116.921 8.78564 117.491 8.75749C118.061 8.72229 118.434 8.70821 118.617 8.70821H118.821C119.018 8.70117 119.124 8.7786 119.124 8.93346Z" fill="white" fill-opacity="0.9"/>
<path d="M136.214 23.0535C136.214 23.2365 135.933 23.321 135.377 23.321C135.335 23.321 135.039 23.321 134.504 23.321C133.969 23.321 133.181 23.321 132.153 23.321H131.076H128.183C127.866 23.321 127.711 23.2365 127.711 23.0676C127.711 22.9198 127.845 22.8494 128.105 22.8494H128.373C128.943 22.8494 129.281 22.779 129.379 22.6312C129.478 22.4833 129.527 21.9836 129.527 21.1248V14.5995C129.527 12.1921 129.372 10.7491 129.063 10.2704C128.795 9.86213 128.324 9.65799 127.641 9.65799C126.958 9.65799 126.395 9.86917 125.951 10.2986C125.508 10.7209 125.29 11.2629 125.29 11.9105V22.0751C125.332 22.3425 125.43 22.5185 125.578 22.596C125.726 22.6734 126.085 22.7227 126.669 22.7438C126.845 22.7438 126.937 22.8142 126.937 22.9409C126.937 23.0746 126.859 23.1521 126.705 23.1732C126.55 23.1943 125.987 23.2084 125.022 23.2084C124.058 23.2084 123.262 23.2224 122.636 23.2436C121.404 23.2858 120.144 23.314 118.87 23.314C118.602 23.314 118.469 23.2365 118.469 23.0817C118.469 22.9057 118.814 22.8142 119.496 22.8142C120.179 22.8142 120.58 22.6804 120.693 22.4129L120.792 21.9413V14.2334C120.792 12.0654 120.771 10.9321 120.721 10.8476C120.651 10.5097 120.348 10.3408 119.813 10.3408C119.525 10.3408 119.264 10.3408 119.039 10.3408H118.673C118.314 10.3408 118.131 10.2704 118.131 10.1226C118.131 9.97475 118.265 9.89028 118.532 9.86917C121.031 9.75654 123.03 9.2286 124.522 8.28536C124.698 8.19385 124.825 8.15161 124.888 8.15161C125.064 8.15161 125.156 8.33463 125.156 8.68659C125.156 9.67207 125.156 10.3126 125.156 10.6012C126.346 9.05262 127.866 8.27832 129.731 8.27832C131.66 8.27832 132.913 8.94704 133.497 10.2986C133.744 10.8617 133.891 11.4882 133.948 12.185C134.004 12.8819 134.032 14.3179 134.032 16.486V21.3641C134.032 22.061 134.089 22.4693 134.201 22.5889C134.314 22.7156 134.68 22.7719 135.292 22.7719C135.905 22.786 136.214 22.8775 136.214 23.0535Z" fill="white" fill-opacity="0.9"/>
<path d="M147.371 18.619C147.371 20.1183 146.914 21.3361 145.999 22.2653C145.084 23.1944 143.901 23.659 142.444 23.659C141.726 23.659 140.881 23.476 139.896 23.124C139.093 22.8354 138.565 22.6876 138.319 22.6876C137.897 22.6876 137.615 22.8495 137.481 23.1733C137.348 23.4971 137.249 23.659 137.179 23.659C137.045 23.659 136.975 23.5816 136.975 23.4197C136.975 23.2859 136.996 23.0677 137.031 22.7791C137.087 22.3497 137.115 21.6036 137.115 20.5477C137.115 20.5055 137.115 20.3929 137.115 20.2098C137.115 20.0268 137.115 19.7804 137.115 19.4637V18.8865C137.115 18.6401 137.172 18.5134 137.284 18.5134C137.418 18.5134 137.517 18.6823 137.587 19.0202C137.791 20.2098 138.361 21.2024 139.298 21.9978C140.234 22.7932 141.283 23.1944 142.444 23.1944C143.183 23.1944 143.774 22.9621 144.232 22.5046C144.689 22.0471 144.915 21.4487 144.915 20.7026C144.915 20.1183 144.704 19.6256 144.274 19.2244C143.957 18.9357 143.12 18.5627 141.754 18.1122C140.072 17.549 138.854 16.8733 138.108 16.0779C137.355 15.2824 136.982 14.2688 136.982 13.0369C136.982 11.7136 137.432 10.5943 138.326 9.67222C139.22 8.75009 140.318 8.29254 141.62 8.29254C142.113 8.29254 142.965 8.44741 144.176 8.76417C144.359 8.8064 144.492 8.83456 144.577 8.83456C145.07 8.83456 145.443 8.53188 145.689 7.92651C145.731 7.81388 145.788 7.75757 145.858 7.75757C146.013 7.75757 146.09 7.89131 146.09 8.1588L146.055 8.79936C146.034 8.89087 146.02 9.04573 146.02 9.27099C146.02 10.1931 146.076 11.1293 146.189 12.0937V12.2626C146.189 12.4456 146.118 12.5301 145.985 12.5301C145.872 12.5301 145.781 12.4316 145.717 12.2274C145.07 9.93971 143.746 8.79936 141.747 8.79936C141.008 8.79936 140.396 9.0035 139.917 9.40473C139.431 9.80596 139.192 10.3269 139.192 10.9533C139.192 11.5376 139.396 11.9951 139.797 12.333C140.199 12.6709 140.987 13.051 142.148 13.4734C144.19 14.1914 145.569 14.9094 146.287 15.6273C147.012 16.3453 147.371 17.3379 147.371 18.619Z" fill="white" fill-opacity="0.9"/>
<path d="M14.6833 21.9134V15.2755H14.6903V2.34457C14.6903 1.07752 15.711 0.0638816 16.971 0.0286858C14.9297 0.0286858 13.0713 0.73964 11.6142 1.92926C10.1571 0.725562 8.28472 0.00756836 6.23633 0.00756836C7.50338 0.035725 8.51701 1.0564 8.51701 2.32345V15.7401C8.51701 20.6745 12.5293 24.6517 17.4286 24.6517C15.9152 24.6587 14.6833 23.4268 14.6833 21.9134Z" fill="white" fill-opacity="0.9"/>
<path d="M0 6.18827C0 2.76724 2.71711 0.0219727 6.13814 0.0219727H0V6.18827Z" fill="white" fill-opacity="0.9"/>
<path d="M17.0273 0.0151367C20.4202 0.0151367 23.2288 2.76041 23.2288 6.18144V0.0151367H17.0273Z" fill="white" fill-opacity="0.9"/>
<path d="M74.3832 18.1962C74.2917 14.9301 71.4197 12.3044 68.1535 12.3044H66.9428C70.5187 12.3044 73.3555 9.40431 73.1091 5.82842C73.0246 2.47074 70.1245 0 66.7316 0H64.4509C65.7461 0 66.7316 1.04883 66.7316 2.28069V9.93225C66.7316 11.1993 65.8095 12.3044 64.5706 12.3044C63.2121 12.4311 62.1632 11.3823 62.1632 10.0519V8.41883C62.1632 8.10207 62.1421 7.79235 62.1069 7.48262V2.32996C62.1069 1.06291 63.1276 0.0492741 64.3876 0.0140783C62.3603 0.0140783 60.516 0.717994 59.066 1.89353C57.6089 0.710955 55.7365 0 53.681 0C54.9129 0 56.0251 1.04883 56.0251 2.28069V7.32776C55.9758 7.70084 55.9406 8.08095 55.9406 8.4681V21.9199C55.9406 23.4333 54.7087 24.6652 53.1953 24.6652C55.4267 24.6652 57.4681 23.8346 59.0308 22.476C60.5864 23.8487 62.6137 24.6793 64.8451 24.6793C63.4232 24.6793 62.1632 23.4122 62.1632 21.9059V15.3383C62.1632 13.9164 63.3388 12.5649 64.7818 12.5649C66.3515 12.5649 67.5904 13.7967 67.5904 15.282V21.9129C67.5904 23.4263 66.4501 24.6863 64.8451 24.6863H68.238C71.7858 24.6793 74.5944 21.7158 74.3832 18.1962Z" fill="white" fill-opacity="0.9"/>
</g>
<defs>
<clipPath id="clip0">
<rect width="147.372" height="32" fill="white"/>
</clipPath>
</defs>
</svg>
